<svg width="1034" height="213" viewBox="0 0 1034 213" fill="none" xmlns="http://www.w3.org/2000/svg">
<g clip-path="url(#clip0_155_3154)">
<path fill-rule="evenodd" clip-rule="evenodd" d="M6 6H215.277V206.057H6V6ZM0 0H6H215.277H221.277V6V206.057V212.057H215.277H6H0V206.057V6V0ZM17.4062 17.4155V58.3928L54.2858 17.4155H17.4062ZM123.951 68.637C116.165 63.7197 111.653 56.3438 110.629 53.7827C104.997 77.3447 115.585 93.3941 119.853 96.8089L152.63 119.346L186.441 140.859C193.407 145.367 200.271 153.665 202.832 157.25C206.3 123.017 192.798 114.253 186.982 110.478L186.976 110.475C186.79 110.354 186.611 110.238 186.441 110.126L123.951 68.637ZM203.344 58.905V17.9277H166.464L203.344 58.905ZM110.117 194.13V153.153L146.997 194.13H110.117Z" fill="white"/>
<path d="M237.201 2.89795H353.032L354.133 37.6733H349.228C346.825 26.7477 343.755 19.6527 340.017 16.3884C336.347 13.0574 328.571 11.3919 316.691 11.3919H305.278V116.118C305.278 124.045 306.513 128.975 308.982 130.907C311.452 132.772 316.858 134.005 325.201 134.605V138.302H265.433V134.605C274.11 133.938 279.516 132.506 281.651 130.308C283.787 128.109 284.855 122.58 284.855 113.719V11.3919H273.442C262.096 11.3919 254.354 13.0241 250.216 16.2884C246.145 19.5528 243.075 26.6811 241.006 37.6733H236L237.201 2.89795Z" fill="white"/>
<path d="M433.623 85.7392L409.896 29.3792L386.47 85.7392H433.623ZM345.123 138.302V134.605C350.396 134.005 354.333 132.006 356.936 128.609C359.606 125.211 364.145 115.984 370.552 100.928L413.3 0.499634H417.304L468.362 116.517C471.766 124.245 474.469 129.042 476.471 130.907C478.54 132.706 481.977 133.938 486.783 134.605V138.302H434.624V134.605C440.631 134.072 444.502 133.439 446.237 132.706C447.972 131.906 448.84 130.008 448.84 127.01C448.84 126.011 448.506 124.245 447.839 121.714C447.171 119.182 446.237 116.517 445.036 113.719L436.526 94.0333H382.866C377.526 107.424 374.323 115.618 373.255 118.616C372.254 121.547 371.753 123.879 371.753 125.611C371.753 129.075 373.155 131.473 375.958 132.806C377.693 133.605 380.963 134.205 385.769 134.605V138.302H345.123Z" fill="white"/>
<path d="M531.033 68.2516C545.783 67.7186 556.328 66.1864 562.668 63.6549C573.547 59.1914 578.987 50.7973 578.987 38.4727C578.987 26.6145 574.115 18.5202 564.37 14.1899C559.164 11.8583 552.257 10.6924 543.647 10.6924C537.84 10.6924 534.27 11.1254 532.935 11.9915C531.667 12.7909 531.033 14.7229 531.033 17.7874V68.2516ZM492.589 134.605C500.465 133.872 505.37 132.339 507.306 130.008C509.241 127.676 510.209 122.247 510.209 113.719V25.0822C510.209 17.8873 509.108 13.1906 506.906 10.9922C504.77 8.72715 499.998 7.29484 492.589 6.69526V2.89795H549.353C561.167 2.89795 571.011 4.39689 578.887 7.39477C593.837 13.0574 601.312 23.4833 601.312 38.6726C601.312 48.8653 597.975 56.6931 591.301 62.1559C584.693 67.6187 575.683 71.2162 564.27 72.9483L606.518 124.811C609.121 128.009 611.724 130.341 614.327 131.807C616.93 133.272 620.267 134.205 624.338 134.605V138.302H591.301L542.446 75.3466L531.033 75.8462V116.118C531.033 123.712 532.167 128.542 534.437 130.607C536.773 132.606 541.812 133.938 549.554 134.605V138.302H492.589V134.605Z" fill="white"/>
<path d="M640.256 97.1311C643.726 106.325 647.798 113.653 652.47 119.116C660.612 128.642 670.724 133.405 682.804 133.405C689.345 133.405 694.984 131.34 699.723 127.21C704.528 123.079 706.931 117.317 706.931 109.922C706.931 103.26 704.528 97.4642 699.723 92.5344C696.586 89.4033 689.979 84.7066 679.901 78.4444L662.381 67.5521C657.108 64.2211 652.904 60.8568 649.767 57.4592C643.96 50.9972 641.057 43.8689 641.057 36.0744C641.057 25.7484 644.494 17.1545 651.368 10.2927C658.243 3.4309 667.353 0 678.699 0C683.371 0 688.978 1.16584 695.518 3.49752C702.126 5.76258 705.897 6.89511 706.831 6.89511C709.367 6.89511 711.102 6.29553 712.037 5.09639C713.038 3.89724 713.806 2.19844 714.339 0H718.544L723.049 43.5691H718.144C714.807 30.4451 709.434 21.2849 702.026 16.0886C694.684 10.8923 687.409 8.29412 680.201 8.29412C674.595 8.29412 669.689 9.9596 665.484 13.2906C661.346 16.5549 659.277 21.1184 659.277 26.9809C659.277 32.2438 660.879 36.7406 664.083 40.4713C667.286 44.2686 672.259 48.2325 679 52.3629L697.02 63.455C708.299 70.3834 716.242 76.7456 720.847 82.5415C725.385 88.404 727.654 95.3324 727.654 103.327C727.654 114.052 723.583 123.013 715.441 130.208C707.365 137.403 697.02 141 684.406 141C678.065 141 671.424 139.801 664.483 137.403C657.609 135.004 653.671 133.805 652.67 133.805C650.267 133.805 648.632 134.538 647.764 136.004C646.963 137.469 646.43 139.035 646.163 140.7H641.657L635.551 97.1311H640.256Z" fill="white"/>
<path d="M744.473 134.605C752.482 133.738 757.488 132.273 759.49 130.208C761.493 128.076 762.494 122.58 762.494 113.719V25.0822C762.494 17.7541 761.359 12.9908 759.09 10.7923C756.887 8.59391 752.015 7.22822 744.473 6.69526V2.89795H801.438V6.69526C793.896 7.22822 788.99 8.59391 786.721 10.7923C784.452 12.9908 783.317 17.7541 783.317 25.0822V64.9539H845.487V25.0822C845.487 17.7541 844.386 12.9908 842.184 10.7923C839.981 8.59391 835.076 7.22822 827.467 6.69526V2.89795H884.431V6.69526C876.889 7.22822 871.984 8.59391 869.715 10.7923C867.512 12.9908 866.411 17.7541 866.411 25.0822V116.118C866.411 123.579 867.512 128.376 869.715 130.507C871.984 132.573 876.889 133.938 884.431 134.605V138.302H827.467V134.605C835.543 133.805 840.548 132.339 842.484 130.208C844.486 128.076 845.487 122.58 845.487 113.719V73.9476H783.317V116.118C783.317 123.579 784.452 128.376 786.721 130.507C788.99 132.639 793.896 134.005 801.438 134.605V138.302H744.473V134.605Z" fill="white"/>
<path d="M980.84 85.7392L957.113 29.3792L933.687 85.7392H980.84ZM892.34 138.302V134.605C897.613 134.005 901.551 132.006 904.154 128.609C906.823 125.211 911.362 115.984 917.769 100.928L960.517 0.499634H964.522L1015.58 116.517C1018.98 124.245 1021.69 129.042 1023.69 130.907C1025.76 132.706 1029.19 133.938 1034 134.605V138.302H981.841V134.605C987.848 134.072 991.719 133.439 993.454 132.706C995.19 131.906 996.057 130.008 996.057 127.01C996.057 126.011 995.723 124.245 995.056 121.714C994.389 119.182 993.454 116.517 992.253 113.719L983.743 94.0333H930.083C924.743 107.424 921.54 115.618 920.472 118.616C919.471 121.547 918.97 123.879 918.97 125.611C918.97 129.075 920.372 131.473 923.175 132.806C924.91 133.605 928.181 134.205 932.986 134.605V138.302H892.34Z" fill="white"/>
<path d="M829.467 157.934H874.448L874.875 171.48H872.97C872.037 167.224 870.845 164.46 869.394 163.189C867.968 161.891 864.949 161.243 860.335 161.243H855.903V202.035C855.903 205.123 856.383 207.044 857.342 207.796C858.301 208.523 860.4 209.003 863.64 209.236V210.677H840.43V209.236C843.799 208.977 845.899 208.419 846.728 207.563C847.557 206.706 847.972 204.552 847.972 201.101V161.243H843.54C839.134 161.243 836.128 161.879 834.521 163.15C832.94 164.422 831.747 167.198 830.944 171.48H829L829.467 157.934Z" fill="white"/>
<path d="M877.48 209.236C880.409 208.925 882.301 208.406 883.156 207.679C884.037 206.927 884.478 205.046 884.478 202.035V166.575C884.478 163.747 884.05 161.904 883.195 161.048C882.34 160.166 880.435 159.621 877.48 159.413V157.934H919.778L920.051 169.378H918.029C917.355 165.849 916.344 163.565 914.997 162.527C913.649 161.489 910.642 160.97 905.977 160.97H895.169C894.003 160.97 893.277 161.165 892.992 161.554C892.733 161.917 892.603 162.618 892.603 163.656V181.444H904.85C908.245 181.444 910.409 180.938 911.342 179.926C912.275 178.914 913.027 176.864 913.597 173.776H915.463V192.226H913.597C913.001 189.138 912.236 187.101 911.303 186.115C910.37 185.103 908.219 184.597 904.85 184.597H892.603V204.332C892.603 205.915 893.096 206.849 894.081 207.134C895.091 207.42 898.085 207.563 903.061 207.563C908.452 207.563 912.431 206.979 914.997 205.811C917.562 204.617 919.869 201.75 921.917 197.209H924.133L920.517 210.677H877.48V209.236Z" fill="white"/>
<path d="M954.729 157C957.606 157 960.561 157.428 963.593 158.285C966.626 159.141 968.323 159.569 968.686 159.569C969.438 159.569 970.151 159.361 970.824 158.946C971.498 158.531 971.965 157.882 972.224 157H973.896L974.634 174.905H972.807C971.744 171.35 970.358 168.483 968.647 166.303C965.382 162.203 960.988 160.153 955.468 160.153C949.895 160.153 945.334 162.359 941.783 166.77C938.258 171.181 936.496 177.254 936.496 184.987C936.496 192.097 938.349 197.78 942.055 202.035C945.787 206.265 950.505 208.38 956.207 208.38C960.328 208.38 964.125 207.394 967.598 205.422C969.593 204.306 971.783 202.619 974.168 200.362L975.645 201.841C973.883 204.072 971.693 206.032 969.075 207.718C964.617 210.573 959.783 212 954.574 212C946.021 212 939.23 209.262 934.202 203.787C929.563 198.727 927.243 192.408 927.243 184.831C927.243 177.072 929.692 170.559 934.591 165.291C939.748 159.764 946.461 157 954.729 157Z" fill="white"/>
<path d="M979.65 209.236C982.76 208.899 984.704 208.328 985.481 207.524C986.259 206.693 986.647 204.552 986.647 201.101V166.575C986.647 163.721 986.207 161.866 985.326 161.009C984.47 160.153 982.578 159.621 979.65 159.413V157.934H1001.77V159.413C998.842 159.621 996.937 160.153 996.056 161.009C995.175 161.866 994.734 163.721 994.734 166.575V182.106H1018.88V166.575C1018.88 163.721 1018.45 161.866 1017.59 161.009C1016.74 160.153 1014.83 159.621 1011.88 159.413V157.934H1034V159.413C1031.07 159.621 1029.17 160.153 1028.29 161.009C1027.43 161.866 1027 163.721 1027 166.575V202.035C1027 204.942 1027.43 206.81 1028.29 207.64C1029.17 208.445 1031.07 208.977 1034 209.236V210.677H1011.88V209.236C1015.01 208.925 1016.96 208.354 1017.71 207.524C1018.49 206.693 1018.88 204.552 1018.88 201.101V185.609H994.734V202.035C994.734 204.942 995.175 206.81 996.056 207.64C996.937 208.471 998.842 209.003 1001.77 209.236V210.677H979.65V209.236Z" fill="white"/>
</g>
<defs>
<clipPath id="clip0_155_3154">
<rect width="1034" height="213" fill="white"/>
</clipPath>
</defs>
</svg>
