<svg xmlns="http://www.w3.org/2000/svg" viewBox="0 0 13 6.88"><defs><style>.cls-1{fill:#887549;}</style></defs><title>Asset 2</title><g id="Layer_2" data-name="Layer 2"><g id="Layer_1-2" data-name="Layer 1"><path class="cls-1" d="M0,3.32c3.39-3.87,8.66-5,13,.2a9.36,9.36,0,0,1-5.72,3.3A7.15,7.15,0,0,1,1.37,4.7C.89,4.27.46,3.79,0,3.32Zm8.51.15a2.18,2.18,0,1,0-4.36,0,2.24,2.24,0,0,0,2.2,2.26A2.22,2.22,0,0,0,8.51,3.47ZM7.85,6a9,9,0,0,0,4.22-2.49C11.21,2.32,8.63.76,7.67.85A3,3,0,0,1,7.85,6ZM.91,3.29a8.59,8.59,0,0,0,3.8,2.62,3.08,3.08,0,0,1,.07-5A8.79,8.79,0,0,0,.91,3.29Z"/><path class="cls-1" d="M6.6,5A1.44,1.44,0,0,1,5,4.13a1.62,1.62,0,0,1,.44-1.9,1.44,1.44,0,0,1,1.73,0,1.57,1.57,0,0,1,.5,1.91,4,4,0,0,0-.7-.38c-.11,0-.3.07-.41.16C6.21,4.12,6.24,4.51,6.6,5Z"/></g></g></svg>